# xmcd CD database file
#
# Track frame offsets:
#	150
#	15040
#	31372
#
# Disc length: 610 seconds
#
# Revision: 0
# Processed by: cddbd v1.5.1PL0 Copyright (c) Steve Scherf et al.
# Submitted via: NeoAudio 9.9.9
#
DISCID=11026003
DTITLE=dAVE sHERIFF - It's Wrong - You're gone
DYEAR=1900
DGENRE=Country
TTITLE0=it's wrong - you're gone
TTITLE1=tropical love
TTITLE2=reel away
EXTD=
EXTT0=
EXTT1=
EXTT2=
PLAYORDER=
